Coordinates
version=1
nRows=8
nColumns=34
inDegrees=yes

Units are S.I. units (second, meters, Newtons, ...)
If the header above contains a line with 'inDegrees', this indicates whether rotational values are in degrees (yes) or radians (no).

endheader
time	pelvis_tilt	pelvis_list	pelvis_rotation	pelvis_tx	pelvis_ty	pelvis_tz	hip_flexion_r	hip_adduction_r	hip_rotation_r	knee_angle_r	ankle_angle_r	subtalar_angle_r	mtp_angle_r	hip_flexion_l	hip_adduction_l	hip_rotation_l	knee_angle_l	ankle_angle_l	subtalar_angle_l	mtp_angle_l	lumbar_extension	lumbar_bending	lumbar_rotation	arm_flex_r	arm_add_r	arm_rot_r	elbow_flex_r	pro_sup_r	arm_flex_l	arm_add_l	arm_rot_l	elbow_flex_l	pro_sup_l
      3.00000000	      0.68032728	     -1.73415244	     -4.92512398	      0.59572388	      0.68020780	     -0.07787637	     65.39930483	    -13.43371153	      0.59281878	     90.47874412	     28.26929924	      4.06872291	      0.00000000	     65.57416088	    -20.29815024	      1.42099082	     93.16740061	     29.73298910	      0.24426580	      0.00000000	    -36.78609965	      3.05679185	     -2.28118427	    122.96527318	    -19.58949758	     58.31329232	    102.44978045	     87.76148661	    114.23811550	    -45.09436820	     50.95741418	    120.33197265	     82.35046555
      3.01666670	     -1.24997623	     -1.29789050	     -4.64271084	      0.60597852	      0.65626215	     -0.07935705	     70.09007961	    -14.82007287	      1.25089985	     94.44497082	     30.07900346	      6.18968557	      0.00000000	     70.21736956	    -20.89488588	      2.05097513	     96.85262253	     31.41697638	      2.18860032	      0.00000000	    -37.66647531	      2.85405702	     -2.44792263	    120.82916648	    -19.38480299	     55.09936926	    105.39650821	     88.07332813	    112.79749864	    -42.91976008	     48.84190865	    121.73800601	     82.88802658
      3.03333330	     -2.83515536	     -0.99141056	     -4.37714347	      0.60562672	      0.63450909	     -0.07761978	     74.13228230	    -15.78479349	      1.98639147	     97.80334149	     31.45487172	      7.84499726	      0.00000000	     74.31230523	    -21.71645785	      2.44392607	     99.99115579	     32.40047930	      3.64517039	      0.00000000	    -38.75898978	      2.29621728	     -1.70072635	    119.60627527	    -20.06722819	     52.49315335	    108.06548873	     88.65044430	    112.48406489	    -38.11326604	     48.12886299	    119.51624299	     83.98441269
      3.05000000	     -4.42694329	     -0.76599608	     -3.90963397	      0.60519633	      0.61537981	     -0.07650983	     77.99398317	    -16.72457543	      2.61918147	    100.67801431	     32.53846372	      9.00065965	      0.00000000	     78.38204393	    -22.15851517	      3.01540542	    102.74385444	     33.01502953	      5.22603900	      0.00000000	    -39.86691841	      1.63778908	     -1.00416377	    118.55044753	    -21.87450806	     50.34765039	    110.72791007	     89.69591692	    112.94519335	    -33.23059246	     47.70835599	    115.93407123	     85.83753167
      3.06666670	     -6.15273248	     -0.59646013	     -3.56826901	      0.60013401	      0.59358215	     -0.07767401	     82.39650850	    -17.37402505	      3.38470717	    103.49823068	     33.11979839	      9.41450317	      0.00000000	     83.07726723	    -22.44744321	      3.74876599	    105.68731087	     33.01007438	      5.80521784	      0.00000000	    -40.85395294	      1.63450058	     -1.23407579	    118.74805242	    -21.81017499	     48.94567453	    111.69078912	     89.90468981	    114.51285741	    -31.29770769	     47.37534886	    114.69910382	     86.29681708
      3.08333330	     -7.86940334	     -0.29699029	     -3.36394322	      0.60871460	      0.57429224	     -0.07975071	     86.72024233	    -17.96137414	      4.71515735	    106.45414303	     33.80101818	     10.40406772	      0.00000000	     87.15806208	    -23.04929286	      4.20922647	    108.47298399	     33.51311147	      6.67712092	      0.00000000	    -41.41673545	      1.37314118	     -0.63737328	    119.62388827	    -22.11312951	     47.87230299	    113.26118582	     90.21314796	    115.02096299	    -29.40444899	     46.27686246	    114.80990016	     86.81333907
      3.10000000	     -9.53120072	     -0.11669145	     -3.30181904	      0.61145871	      0.55432371	     -0.07747119	     90.84352481	    -18.18410160	      5.93073276	    109.26709336	     34.32136883	     10.84057730	      0.00000000	     91.27312032	    -23.91427348	      4.93449120	    111.39830795	     34.19220493	      7.59118427	      0.00000000	    -41.67838207	      1.11446329	      0.41649823	    120.47719113	    -22.15992370	     46.58155291	    114.68340540	     91.22682559	    114.29870285	    -27.11318079	     43.72180395	    114.75248903	     88.37834800
      3.11666670	    -10.63786195	      0.10196332	     -3.26766098	      0.61308803	      0.53724490	     -0.07355699	     94.35598012	    -18.14852488	      7.14003134	    112.05593441	     34.90236871	     11.47063822	      0.00000000	     94.67053110	    -25.03146138	      5.56527262	    114.00831671	     34.73599431	      9.12283684	      0.00000000	    -42.47388417	      0.75041955	      0.90360772	    121.95385014	    -20.83991925	     45.78235711	    114.70682486	     91.69540980	    114.95579413	    -26.42892661	     42.44607612	    115.23750831	     89.05524736
